<svg xmlns="http://www.w3.org/2000/svg" viewBox="0 0 1600 1000" role="img" aria-label="古いアルバム風の背景">
  <defs>
    <filter id="paperNoise" x="-10%" y="-10%" width="120%" height="120%">
      <feTurbulence type="fractalNoise" baseFrequency="0.86" numOctaves="3" seed="18"/>
      <feColorMatrix type="saturate" values="0"/>
      <feComponentTransfer>
        <feFuncA type="table" tableValues="0 0.12"/>
      </feComponentTransfer>
      <feBlend in="SourceGraphic" mode="multiply"/>
    </filter>
    <filter id="softShadow" x="-20%" y="-20%" width="140%" height="140%">
      <feDropShadow dx="0" dy="18" stdDeviation="18" flood-color="#3b2516" flood-opacity="0.22"/>
    </filter>
    <linearGradient id="page" x1="0" x2="1" y1="0" y2="1">
      <stop offset="0" stop-color="#f6e8c8"/>
      <stop offset="0.42" stop-color="#ead1a5"/>
      <stop offset="1" stop-color="#d7b781"/>
    </linearGradient>
    <linearGradient id="photoSepia" x1="0" x2="1" y1="0" y2="1">
      <stop offset="0" stop-color="#f2d9a2"/>
      <stop offset="1" stop-color="#8f6645"/>
    </linearGradient>
    <linearGradient id="photoBlue" x1="0" x2="1" y1="0" y2="1">
      <stop offset="0" stop-color="#cce7ee"/>
      <stop offset="1" stop-color="#578d98"/>
    </linearGradient>
    <pattern id="ledgerLines" width="42" height="32" patternUnits="userSpaceOnUse">
      <path d="M0 31H42" stroke="#bb8d58" stroke-opacity="0.34"/>
      <path d="M14 0V32" stroke="#c08e61" stroke-opacity="0.18"/>
    </pattern>
  </defs>

  <rect width="1600" height="1000" fill="#c59a66"/>
  <rect x="38" y="42" width="1524" height="916" rx="28" fill="#8b6547" opacity="0.42"/>
  <rect x="68" y="58" width="1464" height="884" rx="18" fill="url(#page)" filter="url(#paperNoise)"/>
  <path d="M787 70c18 164 17 356 4 529-8 108-6 217 6 331" stroke="#9f714a" stroke-width="12" opacity="0.22"/>
  <path d="M817 70c-18 182-15 362 0 533 9 103 4 213-6 327" stroke="#fff2cf" stroke-width="5" opacity="0.3"/>

  <g opacity="0.18">
    <circle cx="206" cy="158" r="3" fill="#714a2e"/>
    <circle cx="478" cy="96" r="2" fill="#714a2e"/>
    <circle cx="1006" cy="192" r="3" fill="#714a2e"/>
    <circle cx="1392" cy="712" r="2" fill="#714a2e"/>
    <circle cx="628" cy="844" r="3" fill="#714a2e"/>
    <circle cx="1220" cy="88" r="2" fill="#714a2e"/>
  </g>

  <g transform="translate(124 112) rotate(-8)" filter="url(#softShadow)">
    <rect x="0" y="0" width="436" height="292" rx="8" fill="#fff2d3"/>
    <rect x="24" y="24" width="388" height="244" rx="4" fill="url(#photoSepia)"/>
    <path d="M24 214c82-49 142-53 226-22 58 22 100 21 162-22v98H24z" fill="#684a35" opacity="0.5"/>
    <path d="M40 178h116v-52h118v52h104v36H40z" fill="#4f3626" opacity="0.58"/>
    <path d="M72 126h56v-42h62v42h56v52H72z" fill="#d8a65d" opacity="0.55"/>
    <path d="M42 191h332" stroke="#3f2d22" stroke-width="8" opacity="0.55"/>
    <path d="M86 221h245" stroke="#3f2d22" stroke-width="7" opacity="0.42"/>
    <circle cx="328" cy="76" r="34" fill="#f6d37a" opacity="0.65"/>
    <g fill="#2d251e" opacity="0.65">
      <rect x="35" y="31" width="40" height="22" rx="2"/>
      <rect x="337" y="31" width="40" height="22" rx="2"/>
      <rect x="35" y="238" width="40" height="22" rx="2"/>
      <rect x="337" y="238" width="40" height="22" rx="2"/>
    </g>
  </g>

  <g transform="translate(1018 82) rotate(6)" filter="url(#softShadow)">
    <rect x="0" y="0" width="340" height="250" rx="7" fill="#fff6dd"/>
    <rect x="22" y="22" width="296" height="206" rx="4" fill="url(#photoBlue)"/>
    <path d="M22 164c52-31 113-34 169-9 45 21 85 17 127-20v93H22z" fill="#49696e" opacity="0.62"/>
    <path d="M52 158h62v-54h48v54h44v-78h52v78h36" fill="none" stroke="#244b57" stroke-width="10" opacity="0.64"/>
    <path d="M60 90h54M178 72h72M220 116h42" stroke="#fff3cc" stroke-width="5" opacity="0.45"/>
    <g fill="#2d251e" opacity="0.62">
      <rect x="33" y="31" width="34" height="18" rx="2"/>
      <rect x="273" y="31" width="34" height="18" rx="2"/>
      <rect x="33" y="201" width="34" height="18" rx="2"/>
      <rect x="273" y="201" width="34" height="18" rx="2"/>
    </g>
  </g>

  <g transform="translate(1120 416) rotate(-7)" filter="url(#softShadow)">
    <rect x="0" y="0" width="268" height="180" rx="14" fill="#d9b56f"/>
    <rect x="18" y="22" width="232" height="136" rx="9" fill="#f7e6bc"/>
    <rect x="36" y="44" width="70" height="84" rx="8" fill="#b99764"/>
    <circle cx="71" cy="79" r="24" fill="#7b634d" opacity="0.45"/>
    <path d="M130 54h82M130 78h92M130 102h70M130 126h96" stroke="#8b6547" stroke-width="7" stroke-linecap="round" opacity="0.52"/>
  </g>

  <g transform="translate(950 640) rotate(8)" filter="url(#softShadow)">
    <rect width="378" height="236" rx="13" fill="#6f5745"/>
    <rect x="26" y="30" width="326" height="176" rx="7" fill="#f4e1b4"/>
    <rect x="26" y="30" width="326" height="176" rx="7" fill="url(#ledgerLines)" opacity="0.92"/>
    <path d="M78 70h220M78 116h220M78 160h220" stroke="#8c6746" stroke-width="6" stroke-linecap="round" opacity="0.32"/>
    <path d="M46 30v176" stroke="#b67956" stroke-width="8" opacity="0.28"/>
  </g>

  <g transform="translate(280 608) rotate(-4)" filter="url(#softShadow)">
    <path d="M0 20c78 13 154-12 232 0v144c-75-12-154 13-232 0z" fill="#f2d590"/>
    <path d="M20 58h190M28 94h170M38 130h148" stroke="#8f6840" stroke-width="7" stroke-linecap="round" opacity="0.42"/>
    <circle cx="29" cy="21" r="12" fill="#d0a96c"/>
    <circle cx="205" cy="164" r="12" fill="#d0a96c"/>
  </g>

  <g transform="translate(626 690) rotate(3)" filter="url(#softShadow)">
    <rect x="0" y="0" width="222" height="126" rx="18" fill="#52514c"/>
    <rect x="18" y="18" width="186" height="62" rx="8" fill="#d8c99c"/>
    <rect x="36" y="92" width="30" height="18" rx="5" fill="#2f312f"/>
    <rect x="77" y="92" width="30" height="18" rx="5" fill="#2f312f"/>
    <rect x="118" y="92" width="30" height="18" rx="5" fill="#2f312f"/>
    <rect x="159" y="92" width="30" height="18" rx="5" fill="#2f312f"/>
    <path d="M48 49h126" stroke="#8b7a52" stroke-width="7" stroke-linecap="round"/>
  </g>

  <g transform="translate(1296 604) rotate(-11)" filter="url(#softShadow)">
    <rect x="0" y="0" width="138" height="252" rx="22" fill="#323b42"/>
    <rect x="14" y="24" width="110" height="184" rx="12" fill="#dbe8df"/>
    <circle cx="69" cy="226" r="10" fill="#20272d"/>
    <path d="M36 70h65M36 104h48M36 140h70" stroke="#87a28f" stroke-width="8" stroke-linecap="round" opacity="0.5"/>
  </g>

  <g transform="translate(180 462) rotate(9)" opacity="0.92">
    <rect width="190" height="42" rx="5" fill="#d19073"/>
    <path d="M18 12h154M28 26h118" stroke="#f6d4b8" stroke-width="5" stroke-linecap="round" opacity="0.56"/>
  </g>
  <g transform="translate(888 356) rotate(-4)" opacity="0.82">
    <rect width="220" height="50" rx="6" fill="#9ab5a0"/>
    <path d="M22 17h176M34 33h118" stroke="#f4edd4" stroke-width="5" stroke-linecap="round" opacity="0.54"/>
  </g>

  <path d="M0 760c190-68 328-46 493-8 178 41 347 37 513-7 220-59 371-52 594 14v241H0z" fill="#2c1916" opacity="0.38"/>
  <path d="M0 0h1600v1000H0z" fill="none" stroke="#6f4c36" stroke-opacity="0.18" stroke-width="28"/>
</svg>
